<svg width="104" height="104" viewBox="0 0 104 104" fill="none" xmlns="http://www.w3.org/2000/svg">
<mask id="path-1-inside-1_279_858" fill="white">
<path d="M104 54C104 81.6142 81.6142 104 54 104C26.3858 104 4 81.6142 4 54C4 26.3858 26.3858 4 54 4C81.6142 4 104 26.3858 104 54Z"/>
</mask>
<path d="M105 54C104.333 54 103.667 54 103 54C103.002 59.1411 102.201 64.2669 100.614 69.1474C99.4001 72.8875 97.7311 76.4752 95.6558 79.816C86.9726 94.016 70.6607 103.154 54 103C38.2598 103.127 22.7964 95.0245 13.8487 82.0943C8.1019 73.9354 4.97305 63.9816 5 54C4.36408 27.9007 27.9007 4.36408 54 5C74.6907 4.69311 94.4634 19.1253 100.614 38.8526C102.201 43.7331 103.002 48.8588 103 54C103.667 54 104.333 54 105 54C105.002 48.6535 104.168 43.3161 102.516 38.2349C96.1129 17.6975 75.5346 2.68296 54 3C26.8332 2.34075 2.34075 26.8332 3 54C2.9711 64.3816 6.23021 74.753 12.211 83.2424C21.5184 96.6961 37.6227 105.133 54 105C71.3362 105.161 88.3217 95.6472 97.3548 80.8712C99.5148 77.3941 101.252 73.6591 102.516 69.7651C104.168 64.6838 105.002 59.3465 105 54ZM103 54H105H103Z" fill="#073540" fill-opacity="0.86" mask="url(#path-1-inside-1_279_858)"/>
<circle cx="54" cy="54" r="38.5" stroke="#073540" stroke-opacity="0.86" stroke-width="3"/>
<path d="M22.6 73V72.04L27.46 69.64V36.76L22.6 34.36V33.4H40.84C45.36 33.4 49.18 34.18 52.3 35.74C55.46 37.3 57.86 39.44 59.5 42.16C61.18 44.88 62.02 47.96 62.02 51.4C62.02 54.52 61.48 57.4 60.4 60.04C59.32 62.64 57.8 64.92 55.84 66.88C53.92 68.8 51.64 70.3 49 71.38C46.4 72.46 43.54 73 40.42 73H22.6ZM39.22 36.7H33.76V69.7H40.12C43.32 69.7 46.06 69.04 48.34 67.72C50.62 66.36 52.38 64.46 53.62 62.02C54.86 59.54 55.48 56.62 55.48 53.26C55.48 48.26 54.08 44.26 51.28 41.26C48.48 38.22 44.46 36.7 39.22 36.7Z" fill="#01171C"/>
<path d="M81.98 82C80.34 82 78.64 81.78 76.88 81.34C75.12 80.94 73.14 80.12 70.94 78.88C68.74 77.68 66.14 75.9 63.14 73.54C59.62 73.22 56.48 72.16 53.72 70.36C51 68.52 48.84 66.14 47.24 63.22C45.68 60.26 44.9 56.92 44.9 53.2C44.9 50.24 45.4 47.52 46.4 45.04C47.4 42.56 48.8 40.42 50.6 38.62C52.44 36.78 54.58 35.36 57.02 34.36C59.5 33.32 62.18 32.8 65.06 32.8C67.94 32.8 70.6 33.32 73.04 34.36C75.52 35.36 77.66 36.78 79.46 38.62C81.3 40.42 82.72 42.56 83.72 45.04C84.76 47.52 85.28 50.24 85.28 53.2C85.28 56.4 84.68 59.34 83.48 62.02C82.28 64.66 80.62 66.92 78.5 68.8C76.38 70.64 73.92 71.96 71.12 72.76C73.36 74.56 75.32 75.98 77 77.02C78.68 78.06 80.2 78.8 81.56 79.24C82.96 79.68 84.32 79.9 85.64 79.9C86.48 79.9 87.22 79.84 87.86 79.72C88.5 79.6 89.04 79.48 89.48 79.36V80.38C88.56 80.86 87.46 81.24 86.18 81.52C84.94 81.84 83.54 82 81.98 82ZM66.26 70.6C68.7 70.6 70.84 69.96 72.68 68.68C74.52 67.4 75.96 65.6 77 63.28C78.04 60.96 78.56 58.22 78.56 55.06C78.56 51.14 77.92 47.74 76.64 44.86C75.36 41.98 73.62 39.74 71.42 38.14C69.22 36.54 66.78 35.74 64.1 35.74C61.66 35.74 59.5 36.38 57.62 37.66C55.74 38.94 54.26 40.74 53.18 43.06C52.14 45.34 51.62 48.06 51.62 51.22C51.62 55.14 52.26 58.54 53.54 61.42C54.86 64.3 56.62 66.56 58.82 68.2C61.06 69.8 63.54 70.6 66.26 70.6Z" fill="#01171C"/>
</svg>
