<svg width="104" height="106" viewBox="0 0 104 106" fill="none" xmlns="http://www.w3.org/2000/svg">
<mask id="path-1-inside-1_279_858" fill="white">
<path d="M104 54C104 81.6142 81.6142 104 54 104C26.3858 104 4 81.6142 4 54C4 26.3858 26.3858 4 54 4C81.6142 4 104 26.3858 104 54Z"/>
</mask>
<path d="M105 54C104.333 54 103.667 54 103 54C103.002 59.1411 102.201 64.2669 100.614 69.1474C99.4001 72.8875 97.7312 76.4752 95.6558 79.816C86.9726 94.016 70.6607 103.154 54 103C38.2598 103.127 22.7964 95.0245 13.8487 82.0943C8.1019 73.9354 4.97305 63.9816 5 54C4.36408 27.9007 27.9007 4.36408 54 5C74.6907 4.69311 94.4634 19.1253 100.614 38.8526C102.201 43.7331 103.002 48.8588 103 54C103.667 54 104.333 54 105 54C105.002 48.6535 104.168 43.3161 102.516 38.2349C96.1129 17.6975 75.5346 2.68296 54 3C26.8332 2.34075 2.34075 26.8332 3 54C2.9711 64.3816 6.23021 74.753 12.211 83.2424C21.5184 96.6961 37.6227 105.133 54 105C71.3362 105.161 88.3217 95.6472 97.3548 80.8712C99.5148 77.3941 101.252 73.6591 102.516 69.7651C104.168 64.6838 105.002 59.3465 105 54ZM103 54H105H103Z" fill="#073540" fill-opacity="0.86" mask="url(#path-1-inside-1_279_858)"/>
<circle cx="54" cy="54" r="38.5" stroke="#073540" stroke-opacity="0.86" stroke-width="3"/>
<path d="M22.6 73V72.04L27.46 69.64V36.76L22.6 34.36V33.4H40.84C45.36 33.4 49.18 34.18 52.3 35.74C55.46 37.3 57.86 39.44 59.5 42.16C61.18 44.88 62.02 47.96 62.02 51.4C62.02 54.52 61.48 57.4 60.4 60.04C59.32 62.64 57.8 64.92 55.84 66.88C53.92 68.8 51.64 70.3 49 71.38C46.4 72.46 43.54 73 40.42 73H22.6ZM39.22 36.7H33.76V69.7H40.12C43.32 69.7 46.06 69.04 48.34 67.72C50.62 66.36 52.38 64.46 53.62 62.02C54.86 59.54 55.48 56.62 55.48 53.26C55.48 48.26 54.08 44.26 51.28 41.26C48.48 38.22 44.46 36.7 39.22 36.7Z" fill="#01171C"/>
<path d="M81.98 82C80.34 82 78.64 81.78 76.88 81.34C75.12 80.94 73.14 80.12 70.94 78.88C68.74 77.68 66.14 75.9 63.14 73.54C59.62 73.22 56.48 72.16 53.72 70.36C51 68.52 48.84 66.14 47.24 63.22C45.68 60.26 44.9 56.92 44.9 53.2C44.9 50.24 45.4 47.52 46.4 45.04C47.4 42.56 48.8 40.42 50.6 38.62C52.44 36.78 54.58 35.36 57.02 34.36C59.5 33.32 62.18 32.8 65.06 32.8C67.94 32.8 70.6 33.32 73.04 34.36C75.52 35.36 77.66 36.78 79.46 38.62C81.3 40.42 82.72 42.56 83.72 45.04C84.76 47.52 85.28 50.24 85.28 53.2C85.28 56.4 84.68 59.34 83.48 62.02C82.28 64.66 80.62 66.92 78.5 68.8C76.38 70.64 73.92 71.96 71.12 72.76C73.36 74.56 75.32 75.98 77 77.02C78.68 78.06 80.2 78.8 81.56 79.24C82.96 79.68 84.32 79.9 85.64 79.9C86.48 79.9 87.22 79.84 87.86 79.72C88.5 79.6 89.04 79.48 89.48 79.36V80.38C88.56 80.86 87.46 81.24 86.18 81.52C84.94 81.84 83.54 82 81.98 82ZM66.26 70.6C68.7 70.6 70.84 69.96 72.68 68.68C74.52 67.4 75.96 65.6 77 63.28C78.04 60.96 78.56 58.22 78.56 55.06C78.56 51.14 77.92 47.74 76.64 44.86C75.36 41.98 73.62 39.74 71.42 38.14C69.22 36.54 66.78 35.74 64.1 35.74C61.66 35.74 59.5 36.38 57.62 37.66C55.74 38.94 54.26 40.74 53.18 43.06C52.14 45.34 51.62 48.06 51.62 51.22C51.62 55.14 52.26 58.54 53.54 61.42C54.86 64.3 56.62 66.56 58.82 68.2C61.06 69.8 63.54 70.6 66.26 70.6Z" fill="#01171C"/>
<path d="M11 78.5C30.5 112.5 78.5 110.5 98 78.5" stroke="#0D667A" stroke-width="3"/>
<path d="M10.2819 81.1079L10.3479 81.0628L10.755 81.2994L13.0096 79.7601L12.9411 79.2922L13.0072 79.2471L13.9612 80.6602C14.1813 80.9862 14.3151 81.3005 14.3625 81.6031C14.4099 81.9058 14.3811 82.1817 14.276 82.4311C14.1708 82.6805 13.9999 82.886 13.7631 83.0476C13.5484 83.1942 13.3232 83.2895 13.0874 83.3334C12.8562 83.3783 12.6256 83.3763 12.3956 83.3275C12.1684 83.2768 11.9532 83.1815 11.7502 83.0416C11.5472 82.9017 11.3692 82.7185 11.2163 82.492L10.2819 81.1079ZM13.6194 80.6454L13.4403 80.3802L11.1692 81.9308L11.3902 82.2582C11.6047 82.5759 11.8726 82.7522 12.1938 82.7872C12.5177 82.8203 12.8518 82.7194 13.1959 82.4844C13.5428 82.2476 13.7588 81.9689 13.844 81.6484C13.9293 81.3278 13.8544 80.9935 13.6194 80.6454Z" fill="black"/>
<path d="M13.6225 87.1053C13.5726 87.0471 13.545 86.9893 13.5398 86.9321C13.5368 86.8773 13.5554 86.8325 13.5957 86.7975C13.6108 86.7844 13.639 86.7687 13.6804 86.7505L13.9121 86.6289L14.1404 87.0332C14.2399 87.0263 14.3363 86.9979 14.4295 86.9479C14.5202 86.9001 14.6285 86.8215 14.7544 86.7123L16.843 84.9003L16.7211 84.4434L16.7815 84.391L17.8265 85.6092L17.7661 85.6616L17.3345 85.4734L15.9825 86.6464C15.7433 86.8539 15.4996 87.0102 15.2515 87.1151C15.0034 87.2201 14.7468 87.2794 14.4818 87.293C14.2147 87.3041 14.02 87.2922 13.8976 87.2571C13.7728 87.2242 13.6811 87.1736 13.6225 87.1053Z" fill="black"/>
<path d="M19.0893 91.6348C18.9093 91.4662 18.7709 91.2795 18.6743 91.0748C18.58 90.8676 18.5266 90.6555 18.5142 90.4383C18.5065 90.221 18.5413 90.0069 18.6185 89.7961C18.6979 89.5828 18.8203 89.3868 18.9857 89.2083C19.1533 89.0274 19.339 88.8907 19.5427 88.7984C19.7464 88.706 19.9551 88.6572 20.169 88.652C20.3875 88.6466 20.6017 88.6852 20.8116 88.7676C21.0237 88.8476 21.2198 88.9719 21.3998 89.1406C21.5798 89.3092 21.717 89.4971 21.8114 89.7043C21.9104 89.9113 21.9638 90.1234 21.9715 90.3407C21.9839 90.5579 21.9515 90.7719 21.8743 90.9828C21.7971 91.1936 21.6747 91.3895 21.5071 91.5705C21.3417 91.749 21.156 91.8857 20.9501 91.9805C20.7464 92.0728 20.5353 92.1217 20.3167 92.1271C20.1029 92.1323 19.8887 92.0937 19.6741 92.0115C19.4642 91.929 19.2693 91.8035 19.0893 91.6348ZM19.3243 91.4988C19.4484 91.615 19.5918 91.6785 19.7544 91.6893C19.9193 91.6977 20.0943 91.656 20.2792 91.5643C20.4663 91.4702 20.6483 91.3277 20.8249 91.137C21.0447 90.8998 21.2021 90.6636 21.2973 90.4285C21.3947 90.1909 21.4328 89.9731 21.4117 89.7752C21.3929 89.5748 21.3153 89.4108 21.1791 89.2832C21.0575 89.1693 20.913 89.107 20.7456 89.0963C20.5805 89.0833 20.4043 89.1214 20.217 89.2108C20.0321 89.3025 19.8513 89.4438 19.6746 89.6345C19.4549 89.8717 19.2963 90.1091 19.1989 90.3467C19.1015 90.5843 19.0634 90.8044 19.0847 91.0071C19.1082 91.2073 19.1881 91.3712 19.3243 91.4988Z" fill="black"/>
<path d="M22.3692 94.3421L22.416 94.2772L22.8792 94.3617L24.4748 92.1527L24.2545 91.7318L24.3014 91.6669L25.0685 92.2273L25.3498 95.151L26.4711 93.5986L26.1279 93.1002L26.1748 93.0354L27.2568 93.8258L27.21 93.8907L26.7508 93.8091L24.9708 96.2735L24.7205 96.0906L24.3914 92.8658L23.1618 94.5682L23.5021 95.0706L23.4553 95.1354L22.3692 94.3421Z" fill="black"/>
<path d="M27.7869 97.9996L27.8255 97.9295L28.174 97.9293L30.7987 95.8723L31.183 96.0867L30.8269 99.4033L31.0393 99.7222L31.0007 99.7923L29.6209 99.0226L29.6595 98.9525L30.1263 99.0068L30.2302 98.1144L29.1953 97.5371L28.4976 98.0983L28.7731 98.4581L28.7344 98.5281L27.7869 97.9996ZM29.4286 97.3524L30.2626 97.8176L30.4036 96.568L29.4286 97.3524Z" fill="black"/>
<path d="M33.8116 101.02L33.8419 100.946L34.4092 100.959L35.4485 98.4242L34.788 98.1504L34.1056 98.7605L34.0317 98.7299L34.449 97.7121L37.3542 98.9166L36.9369 99.9344L36.863 99.9037L36.8065 98.9872L36.146 98.7133L35.1067 101.249L35.5185 101.641L35.4882 101.715L33.8116 101.02Z" fill="black"/>
<path d="M38.8538 102.875L38.875 102.798L39.3388 102.714L40.0611 100.081L39.7058 99.7699L39.727 99.6927L41.2399 100.113L41.2187 100.19L40.7886 100.283L40.4764 101.421L41.811 101.791L42.1232 100.653L41.792 100.349L41.8132 100.272L43.3308 100.693L43.3097 100.77L42.8507 100.855L42.1284 103.488L42.4788 103.798L42.4577 103.875L40.94 103.454L40.9612 103.377L41.4009 103.286L41.7382 102.057L40.4036 101.686L40.0663 102.916L40.3878 103.218L40.3667 103.295L38.8538 102.875Z" fill="black"/>
<path d="M45.1933 104.384L45.205 104.305L45.5315 104.182L47.2714 101.333L47.7066 101.398L48.5339 104.625L48.8446 104.849L48.833 104.928L47.2703 104.694L47.282 104.615L47.7385 104.501L47.5235 103.63L46.3515 103.455L45.894 104.226L46.2781 104.465L46.2664 104.544L45.1933 104.384ZM46.5054 103.2L47.4499 103.341L47.1447 102.123L46.5054 103.2Z" fill="black"/>
<path d="M51.2619 105.073L51.2639 104.993L51.694 104.799L51.7635 102.075L51.344 101.854L51.346 101.774L52.2957 101.799L54.1791 104.043L54.2279 102.129L53.6632 101.914L53.6653 101.834L55.0048 101.869L55.0028 101.949L54.5777 102.143L54.5002 105.182L54.1903 105.174L52.0974 102.709L52.0439 104.808L52.6085 105.028L52.6065 105.108L51.2619 105.073Z" fill="black"/>
<path d="M65.8283 104.594C65.6744 104.623 65.5115 104.632 65.3398 104.62C65.1687 104.612 64.9731 104.573 64.7531 104.502C64.537 104.435 64.2883 104.329 64.0072 104.185C63.7181 104.199 63.4498 104.152 63.2022 104.043C62.9578 103.933 62.7514 103.772 62.5828 103.559C62.4175 103.346 62.3076 103.094 62.253 102.802C62.2077 102.56 62.2086 102.329 62.2558 102.11C62.3029 101.89 62.3881 101.693 62.5111 101.517C62.6369 101.337 62.7953 101.187 62.9863 101.066C63.1767 100.942 63.3931 100.857 63.6355 100.811C63.8778 100.765 64.1102 100.765 64.3324 100.811C64.5574 100.853 64.7593 100.936 64.9381 101.058C65.1196 101.176 65.272 101.329 65.3951 101.516C65.5183 101.703 65.6025 101.918 65.6478 102.16C65.6956 102.416 65.692 102.659 65.6368 102.89C65.5816 103.121 65.483 103.328 65.3409 103.511C65.1988 103.694 65.0214 103.843 64.8089 103.957C65.1275 104.138 65.383 104.253 65.5751 104.301C65.7712 104.352 65.9413 104.364 66.0854 104.337C66.1607 104.323 66.2237 104.306 66.2743 104.286C66.3248 104.266 66.3672 104.248 66.4014 104.231L66.4225 104.344C66.3572 104.394 66.2762 104.442 66.1796 104.487C66.083 104.532 65.9659 104.568 65.8283 104.594ZM64.2913 103.882C64.4583 103.851 64.5946 103.772 64.7 103.647C64.8049 103.519 64.8756 103.353 64.9121 103.149C64.948 102.942 64.9421 102.711 64.8943 102.455C64.8348 102.138 64.7391 101.871 64.6072 101.655C64.4747 101.436 64.3227 101.276 64.1515 101.176C63.9796 101.073 63.8019 101.039 63.6185 101.073C63.4547 101.104 63.3188 101.184 63.2106 101.313C63.1019 101.439 63.0276 101.604 62.9878 101.808C62.9513 102.012 62.957 102.242 63.0048 102.497C63.0642 102.815 63.1602 103.084 63.2927 103.303C63.4253 103.522 63.5792 103.683 63.7543 103.785C63.9289 103.885 64.1079 103.917 64.2913 103.882Z" fill="black"/>
<path d="M70.1986 102.576C69.9224 102.665 69.6654 102.698 69.4277 102.676C69.189 102.651 68.9788 102.555 68.7971 102.389C68.6143 102.22 68.4687 101.964 68.3602 101.621L67.8796 100.1L67.4082 100.035L67.3841 99.9589L68.9225 99.4673L68.9466 99.5436L68.5988 99.87L69.0809 101.396C69.1642 101.659 69.2697 101.855 69.3973 101.982C69.5271 102.105 69.6702 102.177 69.8269 102.197C69.9867 102.215 70.1507 102.198 70.319 102.144C70.4587 102.1 70.5798 102.029 70.6824 101.934C70.785 101.838 70.8527 101.715 70.8855 101.564C70.9184 101.414 70.9012 101.232 70.8339 101.019L70.296 99.317L69.7896 99.2742L69.7655 99.1979L70.9562 98.8174L70.9803 98.8937L70.6309 99.2153L71.113 100.741C71.2215 101.084 71.2512 101.377 71.2022 101.62C71.1522 101.86 71.0401 102.059 70.8661 102.216C70.691 102.37 70.4685 102.49 70.1986 102.576Z" fill="black"/>
<path d="M74.5116 100.896L74.4785 100.824L74.6851 100.541L74.5959 97.1968L74.9955 97.0127L77.4396 99.267L77.821 99.284L77.8541 99.3568L76.419 100.018L76.3859 99.945L76.7064 99.5992L76.0536 98.9861L74.9772 99.4818L75.0124 100.379L75.464 100.37L75.4971 100.442L74.5116 100.896ZM74.9677 99.1834L75.8351 98.7839L74.9184 97.9291L74.9677 99.1834Z" fill="black"/>
<path d="M79.9828 98.1424L79.9411 98.0742L80.1956 97.6758L78.7715 95.3466L78.3031 95.3952L78.2614 95.327L79.7116 94.4303C80.0461 94.2234 80.3649 94.1027 80.6681 94.0681C80.9712 94.0335 81.2442 94.0743 81.4872 94.1906C81.7302 94.3068 81.9265 94.4872 82.076 94.7318C82.2116 94.9536 82.2957 95.1838 82.3282 95.4224C82.3619 95.6563 82.349 95.8876 82.2896 96.1164C82.2285 96.3423 82.1236 96.5542 81.9749 96.7519C81.8262 96.9496 81.6357 97.1204 81.4032 97.2642L79.9828 98.1424ZM79.6806 94.7727L79.4085 94.941L80.843 97.2872L81.1789 97.0795C81.505 96.8779 81.693 96.6166 81.7429 96.2957C81.7911 95.972 81.7065 95.6324 81.4892 95.2769C81.2701 94.9186 81.0032 94.6897 80.6885 94.5904C80.3738 94.4911 80.0379 94.5518 79.6806 94.7727Z" fill="black"/>
<path d="M85.5042 94.4329L85.4545 94.3702L85.6587 93.9437L83.9627 91.8045L83.5038 91.9097L83.4541 91.847L84.7882 90.7773C85.0613 90.5584 85.3214 90.4438 85.5685 90.4336C85.8162 90.4188 86.0187 90.5106 86.1761 90.7091C86.2921 90.8554 86.3434 91.0193 86.33 91.201C86.3145 91.38 86.2516 91.5608 86.1411 91.7434L87.7449 92.2775L88.15 92.209L88.1997 92.2717L87.3532 92.9504L85.6849 92.327L85.4743 92.4959L86.2446 93.4675L86.6677 93.3975L86.7174 93.4602L85.5042 94.4329ZM84.7016 91.1992L84.5455 91.3243L85.3221 92.3039L85.5015 92.16C85.6602 92.0328 85.7514 91.8849 85.7751 91.7163C85.7989 91.5478 85.7527 91.3903 85.6368 91.2441C85.5146 91.09 85.3736 91.0086 85.2137 91.0001C85.0517 90.989 84.881 91.0554 84.7016 91.1992Z" fill="black"/>
<path d="M89.9567 90.6011L89.9001 90.5446L89.9943 90.2075L88.7367 87.1055L89.046 86.7925L92.1241 88.0453L92.4869 87.9272L92.5435 87.9837L91.4328 89.1075L91.3763 89.0509L91.5547 88.6143L90.7287 88.2694L89.8957 89.1122L90.2438 89.9408L90.6628 89.7729L90.7194 89.8294L89.9567 90.6011ZM89.7821 88.836L90.4534 88.1568L89.2955 87.6781L89.7821 88.836Z" fill="black"/>
<path d="M94.8405 85.2366C94.7037 85.409 94.5667 85.5469 94.4293 85.6503C94.2893 85.7517 94.1384 85.84 93.9766 85.9153L93.2864 85.4257L93.3423 85.3552L94.0388 85.4588C94.1498 85.4368 94.2554 85.3976 94.3555 85.3411C94.453 85.2826 94.5359 85.2102 94.6043 85.1241C94.7161 84.983 94.7748 84.8421 94.7802 84.7011C94.7831 84.5581 94.7195 84.4344 94.5895 84.3301C94.5011 84.2592 94.4117 84.2217 94.3213 84.2176C94.2331 84.2109 94.1269 84.2347 94.003 84.2891C93.8764 84.3414 93.7115 84.4206 93.5081 84.5267C93.2805 84.6475 93.0727 84.7137 92.8847 84.7253C92.6942 84.7348 92.5145 84.6718 92.3455 84.5362C92.2415 84.4528 92.1634 84.3474 92.1112 84.2201C92.0585 84.0881 92.031 83.9485 92.0286 83.8013C92.0257 83.6494 92.047 83.5019 92.0924 83.3588C92.1398 83.2132 92.2102 83.0816 92.3034 82.9641C92.4091 82.8309 92.5262 82.7154 92.6547 82.6177C92.7833 82.52 92.9176 82.4419 93.0577 82.3833L93.7127 82.8448L93.6599 82.9113L93.0017 82.832C92.8958 82.8582 92.804 82.8935 92.7262 82.9379C92.6479 82.9776 92.5766 83.038 92.5124 83.1189C92.4275 83.226 92.3909 83.3419 92.4025 83.4667C92.4142 83.5914 92.4759 83.6986 92.5877 83.7883C92.6943 83.8738 92.8128 83.9069 92.943 83.8875C93.0728 83.8634 93.2562 83.7904 93.4932 83.6686C93.7909 83.5186 94.0415 83.4333 94.245 83.4128C94.4485 83.3923 94.6438 83.4571 94.831 83.6073C95 83.7429 95.106 83.9069 95.1489 84.0995C95.1893 84.29 95.1806 84.486 95.1229 84.6875C95.0672 84.8865 94.973 85.0695 94.8405 85.2366Z" fill="black"/>
</svg>
